<svg width="512" height="512" viewBox="0 0 128 128" fill="none" xmlns="http://www.w3.org/2000/svg">
  <defs>
    <linearGradient id="gp-bg" x1="0" y1="0" x2="128" y2="128">
      <stop offset="0%" stop-color="#10b981" />
      <stop offset="100%" stop-color="#047857" />
    </linearGradient>
    <linearGradient id="gp-helmet" x1="32" y1="10" x2="96" y2="110">
      <stop offset="0%" stop-color="#34d399" />
      <stop offset="60%" stop-color="#10b981" />
      <stop offset="100%" stop-color="#059669" />
    </linearGradient>
    <linearGradient id="gp-leaf" x1="44" y1="0" x2="84" y2="20">
      <stop offset="0%" stop-color="#6ee7b7" />
      <stop offset="100%" stop-color="#10b981" />
    </linearGradient>
  </defs>

  <rect width="128" height="128" rx="24" fill="url(#gp-bg)" />

  <path
    d="M64 16 L94 34 L94 68 L82 90 L64 104 L46 90 L34 68 L34 34 Z"
    fill="url(#gp-helmet)"
  />

  <path
    d="M64 16 L94 34 L94 68 L82 90 L64 104 L46 90 L34 68 L34 34 Z"
    fill="none"
    stroke="rgba(255,255,255,0.15)"
    stroke-width="1.5"
  />

  <path d="M34 58 L46 50 L46 72 Z" fill="rgba(4,120,87,0.25)" />
  <path d="M94 58 L82 50 L82 72 Z" fill="rgba(4,120,87,0.25)" />

  <rect x="49" y="48" width="7" height="22" rx="2" fill="white" opacity="0.95" />
  <rect x="72" y="48" width="7" height="22" rx="2" fill="white" opacity="0.95" />

  <rect x="61" y="46" width="6" height="28" rx="3" fill="white" opacity="0.75" />

  <rect x="49" y="80" width="30" height="3" rx="1.5" fill="white" opacity="0.4" />

  <path
    d="M64 16 Q84 2, 94 16 Q82 8, 64 16"
    fill="url(#gp-leaf)"
  />
  <path
    d="M64 16 Q44 2, 34 16 Q46 8, 64 16"
    fill="url(#gp-leaf)"
    opacity="0.85"
  />

  <line x1="64" y1="16" x2="64" y2="4" stroke="white" stroke-width="1.5" stroke-linecap="round" opacity="0.6" />

  <line x1="34" y1="42" x2="46" y2="42" stroke="white" stroke-width="0.8" opacity="0.25" />
  <line x1="82" y1="42" x2="94" y2="42" stroke="white" stroke-width="0.8" opacity="0.25" />
  <line x1="38" y1="76" x2="46" y2="82" stroke="white" stroke-width="0.6" opacity="0.2" />
  <line x1="90" y1="76" x2="82" y2="82" stroke="white" stroke-width="0.6" opacity="0.2" />

  <circle cx="54" cy="96" r="1" fill="white" opacity="0.3" />
  <circle cx="64" cy="98" r="1" fill="white" opacity="0.4" />
  <circle cx="74" cy="96" r="1" fill="white" opacity="0.3" />
</svg>
